<svg width="42" height="50" viewBox="0 0 42 50" fill="none" xmlns="http://www.w3.org/2000/svg">
<g clip-path="url(#clip0_26_245)">
<path d="M16.6037 50C24.0134 50 30.0201 49.4096 30.0201 48.6813C30.0201 47.953 24.0134 47.3627 16.6037 47.3627C9.19406 47.3627 3.18733 47.953 3.18733 48.6813C3.18733 49.4096 9.19406 50 16.6037 50Z" fill="#EFEFEF"/>
<path d="M14.9447 27.5624C14.9447 27.5624 24.0311 20.2947 33.1524 19.3414L35.9347 8.30268C36.2444 7.07425 35.5015 5.84956 34.2731 5.53996L12.5783 0.0715992C11.3498 -0.238021 10.0972 0.483685 9.78755 1.71211L4.5079 22.6583L10.0382 18.9653L14.9447 27.5624ZM19.3563 4.71692L19.3584 4.70841C19.4606 4.30312 19.8748 4.05523 20.2801 4.15741L25.4938 5.47157C25.8992 5.57372 26.1453 5.98806 26.0432 6.39334L26.041 6.40183C25.9388 6.80712 25.529 7.04217 25.1237 6.93999L19.91 5.62585C19.5047 5.5237 19.2542 5.12218 19.3563 4.71692Z" fill="#10B981"/>
<path d="M13.9802 34.2106L4.50788 22.6583L0.0697143 40.2661C-0.239865 41.4944 0.510995 42.7634 1.73942 43.073L23.4343 48.5414C24.6626 48.851 25.9073 48.085 26.2169 46.8566L31.8578 24.477C31.8578 24.477 36.1876 20.9812 41.2612 21.1529C28.0772 17.2638 13.9802 34.2106 13.9802 34.2106ZM16.172 41.789C15.8394 43.1086 14.5 43.9087 13.1805 43.5761C11.861 43.2434 11.0609 41.9041 11.3935 40.5846C11.7261 39.265 13.0654 38.4649 14.385 38.7976C15.7045 39.1302 16.5046 40.4695 16.172 41.789Z" fill="#EA3F7E"/>
</g>
<defs>
<clipPath id="clip0_26_245">
<rect width="41.2612" height="50" fill="white"/>
</clipPath>
</defs>
</svg>
