<svg width="41" height="50" viewBox="0 0 41 50" fill="none" xmlns="http://www.w3.org/2000/svg">
<g clip-path="url(#clip0_19_627)">
<path d="M16.4986 50C23.8614 50 29.8301 49.4096 29.8301 48.6813C29.8301 47.9531 23.8614 47.3627 16.4986 47.3627C9.13585 47.3627 3.16715 47.9531 3.16715 48.6813C3.16715 49.4096 9.13585 50 16.4986 50Z" fill="#EFEFEF"/>
<path d="M14.8501 27.5624C14.8501 27.5624 23.8789 20.2947 32.9425 19.3414L35.7072 8.30268C36.0149 7.07425 35.2768 5.84956 34.0562 5.53996L12.4986 0.0715992C11.278 -0.238021 10.0332 0.483685 9.72558 1.71211L4.47936 22.6583L9.9746 18.9653L14.8501 27.5624ZM19.2338 4.71692L19.2359 4.70841C19.3374 4.30312 19.749 4.05523 20.1517 4.15741L25.3324 5.47157C25.7352 5.57372 25.9798 5.98806 25.8783 6.39334L25.8762 6.40183C25.7746 6.80712 25.3674 7.04217 24.9647 6.93999L19.784 5.62585C19.3812 5.5237 19.1323 5.12218 19.2338 4.71692Z" fill="#10B981"/>
<path d="M13.8917 34.2105L4.47934 22.6583L0.069273 40.2661C-0.238347 41.4943 0.50776 42.7634 1.72841 43.073L23.286 48.5414C24.5065 48.851 25.7433 48.085 26.0509 46.8566L31.6562 24.477C31.6562 24.477 35.9585 20.9811 41 21.1529C27.8995 17.2638 13.8917 34.2105 13.8917 34.2105ZM16.0696 41.789C15.7391 43.1085 14.4083 43.9086 13.097 43.5761C11.7859 43.2434 10.9909 41.9041 11.3214 40.5845C11.6519 39.265 12.9827 38.4649 14.2939 38.7976C15.6051 39.1301 16.4001 40.4695 16.0696 41.789Z" fill="#EA3F7E"/>
</g>
<defs>
<clipPath id="clip0_19_627">
<rect width="41" height="50" fill="white"/>
</clipPath>
</defs>
</svg>
