<svg width="60" height="60" viewBox="0 0 60 60" fill="none" xmlns="http://www.w3.org/2000/svg">
<path d="M30 55C43.8071 55 55 43.8071 55 30C55 16.1929 43.8071 5 30 5C16.1929 5 5 16.1929 5 30C5 43.8071 16.1929 55 30 55Z" fill="#EA3F7E"/>
<path d="M43.1519 33.3L42.6844 19.2407C42.6523 18.6561 42.3975 18.106 41.9723 17.7035C41.5471 17.301 40.9839 17.0767 40.3985 17.0767C39.813 17.0767 39.2498 17.301 38.8246 17.7035C38.3994 18.106 38.1446 18.6561 38.1125 19.2407L37.6381 33.355C36.1875 35.6169 36.7581 36.7169 37.5625 37.8169C37.8065 38.1078 37.9994 38.4379 38.1331 38.7932C38.5113 40.0375 37.0606 41.5432 36.4763 41.9763C36.3693 42.0599 36.2895 42.1732 36.2469 42.3021C36.2042 42.431 36.2007 42.5696 36.2368 42.7005C36.2728 42.8313 36.3467 42.9486 36.4493 43.0375C36.5519 43.1264 36.6785 43.183 36.8131 43.2C37.189 43.2521 37.5681 43.2774 37.9475 43.2757C39.1311 43.3366 40.3072 43.0564 41.3362 42.4684C42.3651 41.8803 43.2035 41.0091 43.7517 39.9584C44.2999 38.9076 44.5348 37.7216 44.4284 36.5412C44.3221 35.3609 43.879 34.2359 43.1519 33.3ZM39.4806 19.2888C39.4806 19.0463 39.577 18.8137 39.7485 18.6422C39.9199 18.4708 40.1525 18.3744 40.395 18.3744C40.6375 18.3744 40.8701 18.4708 41.0416 18.6422C41.2131 18.8137 41.3094 19.0463 41.3094 19.2888L41.7631 32.8669H39.0131L39.4806 19.2888ZM42.5194 39.2607C42.1471 40.0177 41.5779 40.6604 40.8713 41.1213C40.1648 41.5823 39.3472 41.8443 38.5044 41.88C39.1919 41.0069 39.8794 39.735 39.4669 38.3944C39.2898 37.893 39.0244 37.4273 38.6831 37.0194C38.1194 36.27 37.7825 35.7819 38.6831 34.2694H42.1206C42.6475 34.9807 42.9641 35.8256 43.0346 36.708C43.1051 37.5903 42.9266 38.4747 42.5194 39.2607ZM35.115 27.4219C35.6751 26.2285 35.8926 24.9029 35.7433 23.593C35.594 22.2832 35.0837 21.0406 34.2694 20.0038C33.4356 18.8398 32.2989 17.9264 30.9827 17.3628C29.6664 16.7992 28.2209 16.6069 26.8031 16.8069C23.4873 17.3225 20.4884 19.0709 18.4061 21.7024C16.3239 24.3338 15.3119 27.6544 15.5725 31C15.8331 34.3455 17.3472 37.4693 19.8118 39.7466C22.2765 42.0238 25.51 43.2867 28.8656 43.2825C29.5935 43.284 30.3203 43.2242 31.0381 43.1038C31.5294 43.0284 31.994 42.8309 32.3891 42.5294C32.7843 42.2279 33.0975 41.8321 33.3 41.3782C33.5115 40.9181 33.6076 40.4135 33.58 39.908C33.5525 39.4024 33.4021 38.9112 33.1419 38.4769C33.0988 38.3992 33.0456 38.3276 32.9838 38.2638C29.4569 34.9707 31.0656 32.9494 33.1006 30.3919C33.8752 29.4759 34.5504 28.4803 35.115 27.4219ZM31.9525 39.1988C32.0967 39.4392 32.1818 39.7103 32.2009 39.9899C32.22 40.2696 32.1726 40.5498 32.0625 40.8075C31.9506 41.0549 31.7788 41.2705 31.5628 41.4349C31.3468 41.5993 31.0932 41.7074 30.825 41.7494C28.1518 42.1942 25.4068 41.7166 23.0409 40.395C20.6751 39.0734 18.8291 36.9864 17.8062 34.4768C16.7834 31.9673 16.6445 29.1845 17.4124 26.5856C18.1803 23.9867 19.8094 21.7263 22.0319 20.1757C23.5149 19.1285 25.2214 18.4411 27.0163 18.1682C27.321 18.1194 27.6289 18.0941 27.9375 18.0925C28.963 18.1095 29.9701 18.3672 30.8777 18.8449C31.7853 19.3225 32.568 20.0068 33.1625 20.8425C33.8229 21.6806 34.237 22.6859 34.3584 23.7459C34.4798 24.8059 34.3038 25.8788 33.85 26.8444C33.3261 27.8142 32.6991 28.7247 31.98 29.56C29.9381 32.1382 27.5938 35.0738 31.9525 39.1988Z" fill="white"/>
<path d="M28.9 20.1274C28.4712 19.7769 27.9642 19.5352 27.4219 19.4228C26.8796 19.3105 26.3182 19.3308 25.7855 19.482C25.2527 19.6333 24.7644 19.911 24.3621 20.2916C23.9598 20.6721 23.6554 21.1443 23.4748 21.6678C23.2942 22.1913 23.2427 22.7507 23.3248 23.2984C23.4069 23.846 23.6201 24.3658 23.9463 24.8133C24.2724 25.2609 24.7019 25.623 25.1981 25.8689C25.6943 26.1148 26.2426 26.2372 26.7963 26.2256H27.2294C27.8918 26.1305 28.5122 25.8441 29.0142 25.4015C29.5162 24.9589 29.8781 24.3794 30.0555 23.7341C30.2329 23.0887 30.2181 22.4057 30.0128 21.7687C29.8075 21.1317 29.4208 20.5684 28.9 20.1481V20.1274ZM28.4119 24.0668C28.2459 24.2807 28.0387 24.4591 27.8025 24.5913C27.5663 24.7236 27.306 24.8071 27.0369 24.8368C26.6429 24.8713 26.2472 24.7918 25.8971 24.6077C25.5471 24.4236 25.2573 24.1427 25.0624 23.7985C24.8675 23.4544 24.7756 23.0614 24.7978 22.6665C24.82 22.2716 24.9553 21.8914 25.1875 21.5712C25.3515 21.3553 25.5582 21.1754 25.7948 21.043C26.0314 20.9105 26.2927 20.8282 26.5625 20.8012C26.6472 20.7944 26.7322 20.7944 26.8169 20.8012C27.2671 20.8037 27.7041 20.9534 28.0613 21.2274C28.4898 21.5658 28.7667 22.0603 28.8313 22.6024C28.89 23.1268 28.7393 23.6531 28.4119 24.0668ZM21.9219 30.9281C22.0409 30.9349 22.1603 30.9349 22.2794 30.9281C23.0264 30.8816 23.7261 30.5462 24.2302 29.9929C24.7342 29.4395 25.0031 28.7117 24.9799 27.9636C24.9566 27.2154 24.6431 26.5057 24.1057 25.9847C23.5682 25.4637 22.8491 25.1724 22.1006 25.1724C21.3521 25.1724 20.633 25.4637 20.0956 25.9847C19.5582 26.5057 19.2446 27.2154 19.2214 27.9636C19.1982 28.7117 19.467 29.4395 19.9711 29.9929C20.4752 30.5462 21.1748 30.8816 21.9219 30.9281ZM21.75 26.5624H21.9356C22.3241 26.5488 22.7025 26.6872 22.9904 26.9483C23.2783 27.2095 23.4529 27.5726 23.4771 27.9605C23.5013 28.3485 23.3732 28.7305 23.1199 29.0254C22.8667 29.3202 22.5084 29.5046 22.1213 29.5393C21.7293 29.588 21.3341 29.4792 21.0222 29.2369C20.7104 28.9947 20.5073 28.6386 20.4575 28.2468C20.4305 28.0512 20.4426 27.8521 20.4931 27.6612C20.5436 27.4702 20.6315 27.2912 20.7518 27.1345C20.872 26.9779 21.0222 26.8466 21.1935 26.7484C21.3649 26.6502 21.554 26.587 21.75 26.5624ZM24.9813 34.2212C24.9189 33.7267 24.715 33.2608 24.3941 32.8796C24.0731 32.4983 23.6488 32.218 23.1722 32.0723C22.6956 31.9266 22.187 31.9218 21.7078 32.0585C21.2285 32.1951 20.799 32.4674 20.4708 32.8425C20.1427 33.2176 19.93 33.6796 19.8584 34.1728C19.7867 34.6659 19.8592 35.1693 20.067 35.6223C20.2748 36.0753 20.6091 36.4585 21.0297 36.7259C21.4503 36.9933 21.9392 37.1334 22.4375 37.1293H22.7675C23.4458 37.0354 24.0594 36.6768 24.4742 36.1319C24.889 35.587 25.0713 34.9001 24.9813 34.2212ZM22.5681 35.7406C22.4076 35.7668 22.2435 35.7604 22.0855 35.7218C21.9275 35.6832 21.7789 35.6131 21.6486 35.5158C21.5183 35.4185 21.409 35.2959 21.3272 35.1553C21.2453 35.0148 21.1927 34.8591 21.1723 34.6978C21.152 34.5364 21.1644 34.3726 21.2088 34.2162C21.2531 34.0597 21.3286 33.9138 21.4307 33.7872C21.5327 33.6605 21.6593 33.5558 21.8027 33.4791C21.9462 33.4025 22.1036 33.3556 22.2656 33.3412H22.4169C22.7289 33.3348 23.0314 33.4492 23.261 33.6605C23.4907 33.8719 23.6298 34.1638 23.6494 34.4752C23.6689 34.7867 23.5673 35.0937 23.3658 35.3321C23.1643 35.5704 22.8785 35.7217 22.5681 35.7543V35.7406ZM26.9888 35.9399C26.3613 36.0256 25.7929 36.3551 25.4068 36.857C25.0207 37.3589 24.8481 37.9928 24.9263 38.6212C24.9956 39.1928 25.2688 39.7202 25.6956 40.1066C26.1225 40.4931 26.6744 40.7126 27.25 40.7249H27.5594C28.1723 40.6229 28.722 40.2876 29.0934 39.7894C29.4648 39.2912 29.629 38.6686 29.5517 38.0521C29.4744 37.4355 29.1616 36.8727 28.6787 36.4816C28.1959 36.0905 27.5804 35.9013 26.9613 35.9537L26.9888 35.9399ZM27.415 39.3774C27.1415 39.4112 26.8658 39.3349 26.6485 39.1653C26.4313 38.9958 26.2903 38.7469 26.2566 38.4734C26.2228 38.1999 26.2991 37.9242 26.4687 37.7069C26.6382 37.4897 26.8871 37.3487 27.1606 37.3149H27.2913C27.5178 37.3139 27.7381 37.3889 27.9169 37.5281C28.0749 37.6538 28.1926 37.8232 28.2553 38.0151C28.3179 38.2071 28.3228 38.4133 28.2694 38.608C28.2159 38.8028 28.1065 38.9776 27.9546 39.1107C27.8027 39.2438 27.6151 39.3294 27.415 39.3568V39.3774Z" fill="white"/>
</svg>
